<svg width="32" height="32" viewBox="0 0 32 32" fill="none" xmlns="http://www.w3.org/2000/svg">
<path fill-rule="evenodd" clip-rule="evenodd" d="M25.4654 7.80043L18.7877 14.5653L19.61 15.4514L26.5 8.47146C26.4955 9.1232 26.474 9.77133 26.4359 10.4137L20.5466 16.5672L21.3819 17.44L26.2712 12.3313C26.193 13.0246 26.0952 13.7082 25.9784 14.3794L22.0781 18.6691C21.7985 18.9766 21.3313 18.9829 21.0442 18.683L17.0013 14.4587C16.2676 13.6921 15.0814 13.6808 14.3345 14.4334L7.93402 20.8821C7.72361 20.4065 7.52581 19.9139 7.34102 19.4063L11.8241 14.7221C11.9559 14.5844 12.1696 14.5844 12.3014 14.7221L12.7191 15.1585L13.5544 14.2857L13.1367 13.8493C12.5436 13.2296 11.582 13.2296 10.9888 13.8493L6.90824 18.113C6.7245 17.5137 6.55775 16.8972 6.40858 16.2663L8.00966 14.6677C8.10169 14.5758 8.24877 14.5838 8.33117 14.6852L8.7135 15.1556L9.61393 14.3566L9.2316 13.8862C8.70927 13.2436 7.77694 13.1928 7.19354 13.7753L6.10937 14.8578C5.70983 12.7456 5.5 10.5013 5.5 8.21622L16.0004 4L25.4654 7.80043ZM8.488 22.0386C8.51698 22.0945 8.54615 22.1501 8.57551 22.2055C10.7502 25.4054 13.0472 26.6286 16.0004 28L16.0576 27.9734C18.9792 26.6168 20.9387 25.7069 23.4254 22.2055C24.2801 20.595 24.9723 18.7354 25.482 16.7174L22.9345 19.5192C22.1974 20.3299 20.9657 20.3464 20.2089 19.5557L16.166 15.3315C15.8877 15.0407 15.4378 15.0364 15.1545 15.3219L8.488 22.0386Z" fill="#757F99"/>
</svg>
